<svg height="226" viewBox="0 0 746 226" width="746" xmlns="http://www.w3.org/2000/svg" xmlns:xlink="http://www.w3.org/1999/xlink"><clipPath id="a"><path d="m0 0h746v226h-746z"/></clipPath><clipPath id="b"><path d="m75.8 68.5 38.3-15.7-37.7-16z"/></clipPath><linearGradient id="c" gradientTransform="matrix(-12.46 0 0 12.46 1349.24 -7057.94)" gradientUnits="userSpaceOnUse" x1="99.95" x2="103.65" y1="570.77" y2="570.77"><stop offset="0" stop-color="#c773af"/><stop offset=".02" stop-color="#c56dad"/><stop offset=".18" stop-color="#b84d9e"/><stop offset=".31" stop-color="#b03895"/><stop offset=".4" stop-color="#ad3192"/><stop offset=".49" stop-color="#9d2f8f"/><stop offset=".83" stop-color="#662784"/><stop offset="1" stop-color="#512480"/></linearGradient><clipPath id="d"><path d="m39.6 116.7 21.1-10 13.2-35.7.5-31.1z"/></clipPath><linearGradient id="e" gradientTransform="matrix(-21.61 0 0 21.61 1911.53 -12463.15)" x1="84.96" x2="88.66" xlink:href="#c" y1="580.3" y2="580.3"/><clipPath id="f"><path d="m97.2 0 20.5 52.1 23.1 5.1 33.6-45.9z"/></clipPath><linearGradient id="g" gradientTransform="matrix(0 40.89 40.89 0 -24530.15 -2378.75)" x1="56.68" x2="60.38" xlink:href="#c" y1="603.3" y2="603.3"/><clipPath id="h"><path d="m97.2 202.9 8.2 19.3 66.1 3.8 7.8-35.6z"/></clipPath><linearGradient id="i" gradientTransform="matrix(0 -57.38 -57.38 0 34646.76 4741.45)" x1="78.29" x2="81.99" xlink:href="#c" y1="601.38" y2="601.38"/><clipPath id="j"><path d="m7.7 152.9 95 67.9-16.3-38.3-48.8-62.4z"/></clipPath><linearGradient id="k" gradientTransform="matrix(0 -55.9 -55.9 0 33590.32 4683.88)" x1="78.43" x2="82.14" xlink:href="#c" y1="599.93" y2="599.93"/><clipPath id="l"><path d="m3.4 47.1 72.2-12.8 39.7 16.9-20.1-51z"/></clipPath><linearGradient id="m" gradientTransform="matrix(0 40.68 40.68 0 -24463.41 -2291.59)" x1="56.45" x2="60.15" xlink:href="#c" y1="602.77" y2="602.77"/><clipPath id="n"><path d="m.1 49.6v1l6.9 100.2 29.9-32.7 37-81.5z"/></clipPath><linearGradient id="o" gradientTransform="matrix(0 -57.36 -57.36 0 34414.51 4736.61)" x1="78.26" x2="81.96" xlink:href="#c" y1="599.38" y2="599.38"/><clipPath id="p"><path d="m190.2 134.1h19.6l8.8-17.2-28.3-20.3z"/></clipPath><linearGradient id="q" gradientTransform="matrix(-12.4 0 0 12.4 1343.19 -6979.69)" x1="90.5" x2="94.2" xlink:href="#c" y1="572.26" y2="572.26"/><clipPath id="r"><path d="m181.5 189.6-7.8 35.2 33.6-61.8 1.8-24.6z"/></clipPath><linearGradient id="s" gradientTransform="matrix(0 -57.95 -57.95 0 34970.41000000001 4704.75)" x1="78.14" x2="81.84" xlink:href="#c" y1="600.2" y2="600.2"/><clipPath id="t"><path d="m189.3 136-46.2 49.1 36.9 3.2 28.2-52.3z"/></clipPath><linearGradient id="u" gradientTransform="matrix(25.24 0 0 -25.24 -1212.12 15544.95)" x1="53.74" x2="57.45" xlink:href="#c" y1="609.43" y2="609.43"/><clipPath id="v"><path d="m142.5 58 47.8 36.2v.1l29.2 20.9 3.6-7-47.1-95.7z"/></clipPath><linearGradient id="w" gradientTransform="matrix(0 42.02 42.02 0 -25082.8 -2469.74)" x1="56.96" x2="60.66" xlink:href="#c" y1="601.29" y2="601.29"/><clipPath id="x"><path d="m39.2 119 46.9 59.9-25.3-70.2z"/></clipPath><linearGradient id="y" gradientTransform="matrix(0 37.18 37.18 0 -22069.18 -1991.01)" x1="56.81" x2="60.51" xlink:href="#c" y1="595.25" y2="595.25"/><clipPath id="z"><path d="m88.7 183.1 7.7 18 76.1-11.6-31.1-2.6z"/></clipPath><linearGradient id="A" gradientTransform="matrix(0 39.1 39.1 0 -23160.22 -2162.27)" x1="57.35" x2="61.05" xlink:href="#c" y1="595.6" y2="595.6"/><g clip-path="url(#a)"><g fill="#411e75"><path d="m286.7 91.4h-13.2v23.6h-17.4v-78.9h32.2c18.8 0 30.2 11.2 30.2 27.3v.2c0 18.3-14.2 27.7-31.9 27.7m14.4-27.6c0-7.8-5.4-12-14.1-12h-13.4v24.2h13.8c8.7 0 13.8-5.2 13.8-12v-.2z"/><path d="m379.3 90.8h-42.1c1.7 7.8 7.1 11.8 14.8 11.8 5.7 0 9.9-1.8 14.7-6.2l9.8 8.7c-5.6 7-13.8 11.3-24.7 11.3-18.2 0-31.6-12.7-31.6-31.2v-.3c0-17.3 12.3-31.5 29.9-31.5 20.2 0 29.4 15.7 29.4 32.8v.2c0 1.7-.1 2.7-.2 4.3m-29.2-23.5c-7.1 0-11.7 5.1-13.1 12.9h25.8c-1-7.7-5.5-12.9-12.7-12.9"/><path d="m405.9 116c-10.5 0-17.6-4.2-17.6-18.2v-28.5h-7.2v-14.7h7.2v-15.5h17.1v15.5h14.2v14.7h-14.2v25.8c0 3.9 1.7 5.9 5.5 5.9a17.4 17.4 0 0 0 8.5-2.1v13.8a25.2 25.2 0 0 1 -13.5 3.5"/><path d="m482.1 90.8h-42.1c1.7 7.8 7.1 11.8 14.8 11.8 5.7 0 9.9-1.8 14.7-6.2l9.8 8.7c-5.6 7-13.8 11.3-24.7 11.3-18.2 0-31.6-12.7-31.6-31.2v-.3c0-17.3 12.3-31.5 29.9-31.5 20.2 0 29.4 15.7 29.4 32.8v.2c0 1.7-.1 2.7-.2 4.3m-29.2-23.5c-7.1 0-11.7 5.1-13.1 12.9h25.8c-1-7.7-5.5-12.9-12.7-12.9"/><path d="m523.8 71.4c-11.4 0-18.4 6.9-18.4 21.3v22.3h-17.1v-60.4h17.1v12.2c3.5-8.3 9.1-13.8 19.3-13.3v17.9z"/><path d="m605.8 115v-51.5l-22.2 33.7h-.5l-22-33.4v51.2h-17v-78.9h18.7l20.8 33.4 20.7-33.4h18.7v78.9z"/><path d="m667.4 115v-6.5c-4.2 4.6-9.9 7.7-18.3 7.7-11.4 0-20.7-6.5-20.7-18.5v-.3c0-13.2 10-19.3 24.4-19.3a42.9 42.9 0 0 1 14.8 2.5v-1c0-7.1-4.4-11.1-13-11.1a44.5 44.5 0 0 0 -16.7 3.3l-4.3-13.1a53.4 53.4 0 0 1 23.4-4.8c18.7 0 27 9.7 27 26v35.1zm.3-24.4a26.6 26.6 0 0 0 -10.9-2.3c-7.3 0-11.8 2.9-11.8 8.3v.4c0 4.6 3.8 7.3 9.4 7.3 8 0 13.4-4.4 13.4-10.6v-3z"/><path d="m721.3 116.4c-18.2 0-31.5-14-31.5-31.2v-.3c0-17.3 13.2-31.5 31.7-31.5 11.4 0 18.5 3.8 24.1 10.1l-10.4 11.4c-3.8-4.1-7.7-6.7-13.8-6.7-8.6 0-14.7 7.6-14.7 16.5v.2c0 9.3 6 16.7 15.3 16.7 5.7 0 9.7-2.5 13.9-6.4l10 10.1c-5.9 6.4-12.6 11.1-24.7 11.1"/><path d="m264.8 161.6h-4.6v7.4h-4.1v-23.1h9.1c5.4 0 8.8 3 8.8 7.8s-4.2 7.9-9.2 7.9m.1-12h-4.7v8.4h4.7c3.1 0 5-1.7 5-4.2s-2-4.2-5-4.2"/><path d="m284.6 166.2a6.3 6.3 0 0 0 4.7-2.1l2.3 2.1a9.1 9.1 0 0 1 -16.1-5.8c0-5 3.5-9.1 8.5-9.1s8.4 4.4 8.4 9.4c0 .4 0 .7-.1 1.1h-12.7a4.9 4.9 0 0 0 5 4.4m3.9-7.1c-.3-2.6-1.8-4.6-4.4-4.6s-4.2 1.9-4.5 4.6z"/><path d="m299.9 163.6a1.9 1.9 0 0 0 2.2 2.2 5.3 5.3 0 0 0 2.5-.6v3.3a7 7 0 0 1 -3.6.9c-2.9 0-5-1.3-5-5.1v-9.2h-2.2v-3.4h2.2v-4.8h4v4.8h4.7v3.4h-4.7v8.5z"/><path d="m315.1 166.2a6.3 6.3 0 0 0 4.7-2.1l2.3 2.1a8.8 8.8 0 0 1 -7.1 3.3 8.7 8.7 0 0 1 -8.9-9.1c0-5 3.5-9.1 8.5-9.1s8.3 4.4 8.3 9.4c0 .4 0 .7-.1 1.1h-12.8a4.9 4.9 0 0 0 5 4.4m3.9-7.1c-.3-2.6-1.8-4.6-4.4-4.6s-4.2 1.9-4.5 4.6h9z"/><path d="m329.7 169h-4v-17.4h4v3.9c1.1-2.6 3.1-4.4 6.2-4.3v4.2h-.2c-3.5 0-5.9 2.3-5.9 6.9v6.7z"/><path d="m359 163.4h-.1l-7.2-10.9v16.5h-4v-23.1h4.3l7 11 7.1-11h4.3v23.1h-4.1v-16.5z"/><path d="m384.6 169v-2.1a7.1 7.1 0 0 1 -5.6 2.5c-3.3 0-6.2-1.9-6.2-5.4 0-3.8 3-5.6 7.1-5.6a14.9 14.9 0 0 1 4.8.7v-.4c0-2.4-1.5-3.7-4.3-3.7a12.1 12.1 0 0 0 -5 1.1l-1.1-3.2a15 15 0 0 1 6.6-1.4c5.1 0 7.6 2.7 7.6 7.4v10.1h-4zm.1-7.4a11.2 11.2 0 0 0 -4-.7c-2.5 0-4 1-4 2.8 0 1.7 1.5 2.6 3.4 2.6s4.6-1.5 4.6-3.7v-1.1z"/><path d="m400.1 169.4a9.1 9.1 0 0 1 0-18.2 8.7 8.7 0 0 1 7 3l-2.5 2.7a5.9 5.9 0 0 0 -4.5-2.2c-2.9 0-5 2.5-5 5.6s2.1 5.6 5.2 5.6a6.1 6.1 0 0 0 4.5-2.2l2.4 2.4a8.8 8.8 0 0 1 -7.1 3.3"/><path d="m421.1 169.4a11.9 11.9 0 0 1 .2-23.9 12 12 0 0 1 9 3.6l-2.6 3a9.2 9.2 0 0 0 -6.5-2.9c-4.4 0-7.6 3.6-7.6 8.2s3.2 8.2 7.6 8.2c2.8 0 4.7-1.2 6.6-3l2.6 2.6a11.9 11.9 0 0 1 -9.4 4.1"/><path d="m444.1 169v-2.1a7.1 7.1 0 0 1 -5.6 2.5c-3.3 0-6.2-1.9-6.2-5.4 0-3.8 3-5.6 7.1-5.6a14.9 14.9 0 0 1 4.8.7v-.4c0-2.4-1.5-3.7-4.3-3.7a12.2 12.2 0 0 0 -5 1.1l-1.1-3.2a14.9 14.9 0 0 1 6.6-1.4c5.1 0 7.7 2.7 7.7 7.4v10.1zm.1-7.4a11.2 11.2 0 0 0 -4-.7c-2.5 0-4 1-4 2.8 0 1.7 1.5 2.6 3.4 2.6s4.6-1.5 4.6-3.7v-1.1z"/><path d="m451.3 145h4v24.08h-4z"/><path d="m458.5 145h4v24.08h-4z"/><path d="m477.3 151.6h4v17.4h-4v-2.7a6.3 6.3 0 0 1 -5.4 3.1c-3.9 0-6.2-2.6-6.2-6.7v-11.1h4v9.9c0 2.7 1.3 4.3 3.7 4.3s3.9-1.6 3.9-4.3v-9.8z"/><path d="m505 151.3c3.8 0 6.1 2.4 6.1 6.7v11h-4v-9.9c0-2.8-1.3-4.3-3.5-4.3s-3.7 1.5-3.7 4.3v9.9h-4v-9.9c0-2.7-1.3-4.2-3.5-4.2s-3.7 1.7-3.7 4.4v9.7h-4v-17.4h4v2.6a6.3 6.3 0 0 1 5.3-3 5.5 5.5 0 0 1 5.2 3.1 7.1 7.1 0 0 1 5.9-3.1"/><path d="m535.6 169.4a11.9 11.9 0 0 1 .2-23.9 12 12 0 0 1 9 3.6l-2.6 3a9.2 9.2 0 0 0 -6.5-2.9c-4.4 0-7.6 3.6-7.6 8.2s3.2 8.2 7.6 8.2c2.9 0 4.7-1.2 6.6-3l2.6 2.6a11.9 11.9 0 0 1 -9.4 4.1"/><path d="m558.8 169v-2.1a7.1 7.1 0 0 1 -5.6 2.5c-3.3 0-6.2-1.9-6.2-5.4 0-3.8 3-5.6 7.1-5.6a14.8 14.8 0 0 1 4.8.7v-.4c0-2.4-1.5-3.7-4.3-3.7a12.1 12.1 0 0 0 -5 1.1l-1.1-3.2a14.9 14.9 0 0 1 6.6-1.4c5.1 0 7.7 2.7 7.7 7.4v10.1zm.1-7.4a11.2 11.2 0 0 0 -4-.7c-2.5 0-4 1-4 2.8 0 1.7 1.5 2.6 3.4 2.6s4.6-1.5 4.6-3.7v-1.1z"/><path d="m570.1 169h-4v-17.4h4v2.7a6.3 6.3 0 0 1 5.4-3.1c3.9 0 6.2 2.6 6.2 6.7v11.1h-4v-9.9c0-2.7-1.4-4.3-3.7-4.3s-3.9 1.6-3.9 4.3z"/><path d="m593.3 169.4a9.1 9.1 0 0 1 0-18.2 8.7 8.7 0 0 1 7 3l-2.5 2.7a5.8 5.8 0 0 0 -4.5-2.2c-2.9 0-5 2.5-5 5.6s2.1 5.6 5.2 5.6a6.1 6.1 0 0 0 4.5-2.2l2.4 2.4a8.8 8.8 0 0 1 -7.1 3.3"/><path d="m610.8 166.2a6.3 6.3 0 0 0 4.7-2.1l2.3 2.1a8.8 8.8 0 0 1 -7.1 3.3 8.7 8.7 0 0 1 -8.9-9.1c0-5 3.5-9.1 8.5-9.1s8.3 4.4 8.3 9.4c0 .4 0 .7-.1 1.1h-12.8a4.9 4.9 0 0 0 5 4.4m3.9-7.1c-.3-2.6-1.8-4.6-4.4-4.6s-4.2 1.9-4.5 4.6z"/><path d="m625.7 169h-4v-17.4h4v3.9c1.1-2.6 3.1-4.4 6.2-4.3v4.2h-.2c-3.5 0-5.9 2.3-5.9 6.9v6.7z"/><path d="m655 169.4a11.9 11.9 0 0 1 .2-23.9 12 12 0 0 1 9 3.6l-2.6 3a9.1 9.1 0 0 0 -6.5-2.9c-4.4 0-7.6 3.6-7.6 8.2s3.2 8.2 7.6 8.2c2.8 0 4.7-1.2 6.6-3l2.6 2.6a11.9 11.9 0 0 1 -9.4 4.1"/><path d="m675.2 166.2a6.3 6.3 0 0 0 4.7-2.1l2.3 2.1a8.8 8.8 0 0 1 -7.1 3.3 8.7 8.7 0 0 1 -8.9-9.1c0-5 3.5-9.1 8.5-9.1s8.4 4.4 8.4 9.4c0 .4 0 .7-.1 1.1h-12.9a4.9 4.9 0 0 0 5 4.4m3.9-7.1c-.3-2.6-1.8-4.6-4.4-4.6s-4.2 1.9-4.5 4.6z"/><path d="m689.9 169h-4v-17.4h4v2.7a6.3 6.3 0 0 1 5.4-3.1c3.9 0 6.2 2.6 6.2 6.7v11.1h-4v-9.9c0-2.7-1.3-4.3-3.7-4.3s-3.9 1.6-3.9 4.3z"/><path d="m710 163.6a1.9 1.9 0 0 0 2.1 2.2 5.3 5.3 0 0 0 2.5-.6v3.3a7 7 0 0 1 -3.6.9c-2.9 0-5-1.3-5-5.1v-9.2h-2.2v-3.4h2.2v-4.8h4v4.8h4.7v3.4h-4.7z"/><path d="m721.6 169h-4v-17.4h4v3.9c1.1-2.6 3.1-4.4 6.2-4.3v4.2h-.2c-3.5 0-5.9 2.3-5.9 6.9v6.7z"/><path d="m738 166.2a6.3 6.3 0 0 0 4.7-2.1l2.3 2.1a8.8 8.8 0 0 1 -7.1 3.3 8.7 8.7 0 0 1 -8.9-9.1c0-5 3.5-9.1 8.5-9.1s8.4 4.4 8.4 9.4c0 .4 0 .7-.1 1.1h-12.8a4.9 4.9 0 0 0 5 4.4m3.9-7.1c-.3-2.6-1.8-4.6-4.4-4.6s-4.2 1.9-4.5 4.6z"/></g><g fill="#92278f"><path d="m272.1 186.8h4.4l-9.6 23.3h-3.6l-9.6-23.3h4.5l7 17.8z"/><path d="m278.8 186h4.3v3.8h-4.3zm.2 6.5h4v17.4h-4z"/><path d="m294.8 210.3a9.1 9.1 0 0 1 0-18.2 8.7 8.7 0 0 1 7 3l-2.5 2.7a5.8 5.8 0 0 0 -4.5-2.2c-2.9 0-5 2.5-5 5.6s2.1 5.6 5.2 5.6a6.1 6.1 0 0 0 4.5-2.2l2.4 2.4a8.8 8.8 0 0 1 -7.1 3.3"/><path d="m310.1 204.5a1.9 1.9 0 0 0 2.1 2.2 5.3 5.3 0 0 0 2.5-.6v3.3a6.9 6.9 0 0 1 -3.6.9c-2.9 0-5-1.3-5-5.1v-9.2h-2.2v-3.4h2.2v-4.8h4v4.8h4.7v3.4h-4.7v8.6z"/><path d="m325.5 210.3a9 9 0 0 1 -9.2-9 9.3 9.3 0 1 1 9.2 9m0-14.7c-3.2 0-5.2 2.5-5.2 5.6a5.4 5.4 0 0 0 5.3 5.6 5.2 5.2 0 0 0 5.3-5.6 5.4 5.4 0 0 0 -5.4-5.6"/><path d="m341.7 209.9h-4v-17.4h4v3.9c1.1-2.6 3.1-4.4 6.2-4.3v4.2h-.2c-3.5 0-5.9 2.3-5.9 6.9v6.6z"/><path d="m350.2 186h4.3v3.8h-4.3zm.2 6.5h4v17.4h-4z"/><path d="m368.9 209.9v-2.1a7 7 0 0 1 -5.6 2.5c-3.3 0-6.2-1.9-6.2-5.4 0-3.8 3-5.6 7.1-5.6a14.7 14.7 0 0 1 4.8.7v-.4c0-2.4-1.5-3.7-4.3-3.7a12.2 12.2 0 0 0 -5 1.1l-1.1-3.2a14.9 14.9 0 0 1 6.6-1.5c5.1 0 7.7 2.7 7.7 7.4v10.3h-4zm.1-7.4a11.4 11.4 0 0 0 -4-.7c-2.5 0-4 1-4 2.8 0 1.6 1.5 2.6 3.4 2.6s4.6-1.5 4.6-3.7v-1.1z"/><path d="m408.1 209.9h-4.3l-2.3-5.6h-10.9l-2.4 5.6h-4.2l10.2-23.3h3.8zm-12.1-18.4-4 9.2h8z"/><path d="m421 192.5h4v17.4h-4v-2.7a6.3 6.3 0 0 1 -5.4 3.1c-3.9 0-6.2-2.6-6.2-6.7v-11.1h4v9.9c0 2.7 1.4 4.3 3.7 4.3s3.9-1.6 3.9-4.3v-9.8z"/><path d="m434.8 210.3a12.2 12.2 0 0 1 -7.4-2.6l1.8-2.7a9.8 9.8 0 0 0 5.7 2.1c1.7 0 2.7-.7 2.7-1.9 0-1.4-1.9-1.8-3.9-2.4s-5.4-1.8-5.4-5.1 2.7-5.3 6.2-5.3a12.1 12.1 0 0 1 6.4 2l-1.6 2.8a10.1 10.1 0 0 0 -4.9-1.7c-1.6 0-2.4.7-2.4 1.7 0 1.3 1.9 1.8 3.9 2.4s5.4 1.9 5.4 5.1c0 3.7-2.8 5.5-6.5 5.5"/><path d="m449.1 204.5a1.9 1.9 0 0 0 2.2 2.2 5.4 5.4 0 0 0 2.5-.6v3.3a7 7 0 0 1 -3.6.9c-2.9 0-5-1.3-5-5.1v-9.2h-2.2v-3.4h2.2v-4.8h4v4.8h4.7v3.4h-4.7v8.6z"/><path d="m460.6 209.9h-4v-17.4h4v3.9c1.1-2.6 3.1-4.4 6.2-4.3v4.2h-.2c-3.5 0-5.9 2.3-5.9 6.9v6.6z"/><path d="m479.5 209.9v-2.1a7 7 0 0 1 -5.6 2.5c-3.3 0-6.2-1.9-6.2-5.4 0-3.8 3-5.6 7.1-5.6a14.8 14.8 0 0 1 4.8.7v-.4c0-2.4-1.5-3.7-4.3-3.7a12.2 12.2 0 0 0 -5 1.1l-1.1-3.2a15 15 0 0 1 6.6-1.5c5.1 0 7.7 2.7 7.7 7.4v10.3h-4zm.1-7.4a11.4 11.4 0 0 0 -4-.7c-2.5 0-4 1-4 2.8 0 1.6 1.5 2.6 3.4 2.6s4.6-1.5 4.6-3.7v-1.1z"/><path d="m487.3 185.8h4v24.08h-4z"/><path d="m494.9 186h4.3v3.8h-4.3zm.2 6.5h4v17.4h-4z"/><path d="m513.7 209.9v-2.1a7.1 7.1 0 0 1 -5.6 2.5c-3.3 0-6.2-1.9-6.2-5.4 0-3.8 3-5.6 7.1-5.6a14.7 14.7 0 0 1 4.8.7v-.4c0-2.4-1.5-3.7-4.3-3.7a12.2 12.2 0 0 0 -5 1.1l-1.1-3.2a14.9 14.9 0 0 1 6.6-1.5c5.1 0 7.6 2.7 7.6 7.4v10.3h-4zm.1-7.4a11.4 11.4 0 0 0 -4-.7c-2.5 0-4 1-4 2.8 0 1.6 1.5 2.6 3.4 2.6s4.6-1.5 4.6-3.7v-1.1z"/></g></g><g clip-path="url(#b)"><path d="m70.7 29.8h48.5v45.58h-48.5z" fill="url(#c)" transform="matrix(.89258582 -.45087754 .45087754 .89258582 -13.5 48.5)"/></g><g clip-path="url(#d)"><path d="m19.6 37.4h74.8v81.86h-74.8z" fill="url(#e)" transform="matrix(.78693502 -.61703588 .61703588 .78693502 -36.2 51.9)"/></g><g clip-path="url(#f)"><path d="m100.4-14.7h70.8v86.63h-70.8z" fill="url(#g)" transform="matrix(.18909544 -.98195871 .98195871 .18909544 82.1 156.6)"/></g><g clip-path="url(#h)"><path d="m114.1 164.8h48.4v86.83h-48.4z" fill="url(#i)" transform="matrix(.16 -.99 .99 .16 -89.59 310.95)"/></g><g clip-path="url(#j)"><path d="m2.8 120.8h104.8v99.42h-104.8z" fill="url(#k)" transform="matrix(.04361939 -.99904822 .99904822 .04361939 -117.6 218)"/></g><g clip-path="url(#l)"><path d="m22.5-34.4h73.6v120.22h-73.6z" fill="url(#m)" transform="matrix(.2113248 -.97741589 .97741589 .2113248 21.6 78.2)"/></g><g clip-path="url(#n)"><path d="m-23.1 52.1h120v83.16h-120z" fill="url(#o)" transform="matrix(.08367784 -.99649286 .99649286 .08367784 -59.5 122.6)"/></g><g clip-path="url(#p)"><path d="m181.7 91.8h45.4v47.06h-45.4z" fill="url(#q)" transform="matrix(.79122353 -.61152704 .61152704 .79122353 -27.8 149.2)"/></g><g clip-path="url(#r)"><path d="m147.1 161h88.6v41.17h-88.6z" fill="url(#s)" transform="matrix(.06801529 -.99768428 .99768428 .06801529 -2.8 360.3)"/></g><g clip-path="url(#t)"><path d="m137 127.8h77.4v68.66h-77.4z" fill="url(#u)" transform="matrix(.95832257 -.28568837 .28568837 .95832257 -38.9 56.8)"/></g><g clip-path="url(#v)"><path d="m121.4 9.3h122.9v108.94h-122.9z" fill="url(#w)" transform="matrix(.31564904 -.94887601 .94887601 .31564904 64.5 217.1)"/></g><g clip-path="url(#x)"><path d="m20.4 104.7h84.5v78.31h-84.5z" fill="url(#y)" transform="matrix(.56208338 -.82708057 .82708057 .56208338 -91.5 114.6)"/></g><g clip-path="url(#z)"><path d="m99.8 152.3h61.7v79.49h-61.7z" fill="url(#A)" transform="matrix(.5591929 -.82903757 .82903757 .5591929 -101.7 193.1)"/></g></svg>